# Blender v2.79 (sub 0) OBJ File: ''
# www.blender.org
mtllib hay.mtl
o bails_hay
v -2.673400 3.034850 -1.585100
v -2.782300 0.226653 -1.585100
v -2.782300 0.226653 1.589000
v -2.673400 2.885570 1.589000
v -2.437000 0.011118 1.589000
v -2.782300 0.226653 1.589000
v -2.782300 0.226653 -1.585100
v -2.437000 0.011118 -1.585100
v -2.782300 0.226653 1.589000
v -2.437000 0.226653 1.999900
v -2.328200 2.885570 1.999900
v -2.673400 2.885570 1.589000
v -2.328200 3.034850 -1.999900
v -2.437000 0.226653 -1.999900
v -2.782300 0.226653 -1.585100
v -2.673400 3.034850 -1.585100
v -2.673400 3.034850 -1.585100
v -2.673400 2.885570 1.589000
v -2.328200 3.179550 1.589000
v -2.328200 3.328900 -1.585099
v -1.273800 0.094507 -1.306700
v -2.437000 0.011118 -1.585100
v -2.437000 0.226653 -1.999900
v -1.273800 0.282151 -1.721600
v -1.273800 0.282151 1.803400
v -2.437000 0.226653 1.999900
v -2.437000 0.011118 1.589000
v -1.273800 0.094507 1.392500
v -1.273800 2.899770 1.803401
v -2.328200 2.885570 1.999900
v -2.437000 0.226653 1.999900
v -1.273800 0.282151 1.803400
v -1.273800 0.282151 -1.721600
v -2.437000 0.226653 -1.999900
v -2.328200 3.034850 -1.999900
v -1.273800 2.985670 -1.721600
v -2.328200 3.179550 1.589000
v -2.328200 2.885570 1.999900
v -1.273800 2.899770 1.803401
v -1.273800 3.167000 1.392501
v -2.328200 3.034850 -1.999900
v -2.328200 3.328900 -1.585099
v -1.273800 3.252970 -1.306700
v -1.273800 2.985670 -1.721600
v -2.437000 0.011118 1.589000
v -2.437000 0.011118 -1.585100
v -2.328200 3.328900 -1.585099
v -2.328200 3.179550 1.589000
v 1.315100 0.328900 -1.622600
v 1.315100 0.140611 -1.260200
v 1.351600 0.087265 1.396500
v 1.315100 0.328900 -1.622600
v 1.435300 2.932180 -1.622599
v 1.421200 0.275554 1.755500
v 1.398900 3.226080 1.307500
v 1.435300 3.200050 -1.260200
v 1.435300 2.932180 -1.622599
v 1.541400 2.932180 1.755500
v 1.421200 0.275554 1.755500
v 1.541400 2.932180 1.755500
v 2.537500 0.287672 -1.867100
v 2.968900 0.421897 -1.452300
v 2.537500 0.072136 -1.452300
v 2.924600 0.226653 1.589000
v 2.659000 0.226653 1.999900
v 2.579300 0.011118 1.589000
v 3.041100 2.891310 -1.452299
v 2.675100 2.970890 -1.867100
v 2.675100 3.264940 -1.452299
v 2.796600 2.970890 1.999900
v 3.076500 2.937840 1.589000
v 2.633400 3.294700 1.487101
v 2.537500 0.287672 -1.867100
v 2.537500 0.072136 -1.452300
v 2.579300 0.011118 1.589000
v 2.675100 2.970890 -1.867100
v 2.537500 0.287672 -1.867100
v 2.659000 0.226653 1.999900
v 2.633400 3.294700 1.487101
v 2.675100 3.264940 -1.452299
v 2.675100 2.970890 -1.867100
v 2.796600 2.970890 1.999900
v 2.659000 0.226653 1.999900
v 2.796600 2.970890 1.999900
v 2.537500 0.072136 -1.452300
v 2.968900 0.421897 -1.452300
v 2.924600 0.226653 1.589000
v 2.579300 0.011118 1.589000
v 2.675100 2.970890 -1.867100
v 3.041100 2.891310 -1.452299
v 3.076500 2.937840 1.589000
v 3.041100 2.891310 -1.452299
v 2.675100 3.264940 -1.452299
v 2.633400 3.294700 1.487101
v 3.041100 2.891310 -1.452299
v 3.076500 2.937840 1.589000
v 2.924600 0.226653 1.589000
v 2.968900 0.421897 -1.452300
vt 0.250800 3.975100
vt 0.250800 3.530700
vt -0.827500 3.549400
vt -0.830600 3.954100
vt 0.058900 3.039200
vt 0.000000 3.039200
vt 0.000000 3.486400
vt 0.058900 3.486400
vt -1.001800 2.027000
vt -0.913500 2.027000
vt -0.912500 2.451200
vt -0.989100 2.451200
vt -0.912500 2.475000
vt -0.913500 2.027000
vt -1.001800 2.027000
vt -0.989100 2.475000
vt 0.018500 3.486400
vt 0.018500 3.039200
vt 0.077500 3.039200
vt 0.077500 3.486400
vt 0.288400 1.434500
vt 0.117100 1.436100
vt 0.117100 1.489300
vt 0.288400 1.492400
vt 0.288400 1.090500
vt 0.117100 1.089000
vt 0.117100 1.011400
vt 0.288400 1.011000
vt 0.276800 2.442900
vt 0.130800 2.440700
vt 0.110000 2.024900
vt 0.295600 2.033600
vt 0.295600 2.033600
vt 0.110000 2.024900
vt 0.130800 2.464100
vt 0.288100 2.456400
vt 0.135800 1.011400
vt 0.135800 1.089000
vt 0.288400 1.090500
vt 0.288400 1.011000
vt 0.135800 1.489300
vt 0.135800 1.436100
vt 0.288400 1.434500
vt 0.288400 1.492400
vt -0.931100 1.992600
vt -0.931100 1.992600
vt -0.912500 2.521900
vt -0.912500 2.498100
vt 0.814400 1.478600
vt 0.814400 1.428000
vt 0.821700 0.993700
vt 0.815500 2.040900
vt 0.813200 2.448000
vt 0.822100 1.097200
vt 0.821000 1.006200
vt 0.816500 1.428000
vt 0.816500 1.478600
vt 0.823200 1.097200
vt 0.815100 2.032500
vt 0.812900 2.448000
vt -0.912400 2.034300
vt -0.996300 2.060300
vt -0.914600 1.999900
vt -0.990700 2.028800
vt -0.916200 2.025900
vt -0.922400 1.990700
vt -0.905500 2.509800
vt -0.986200 2.475800
vt -0.951700 2.446800
vt -0.911600 2.464300
vt -0.994800 2.462100
vt -0.898100 2.514000
vt 0.965900 1.472200
vt 0.965900 1.419000
vt 0.973100 0.992300
vt 0.976700 2.454100
vt 0.950500 2.034400
vt 0.986800 1.089000
vt 0.982400 1.005400
vt 0.988200 1.419000
vt 0.989600 1.472200
vt 1.010500 1.089000
vt 0.973700 2.024900
vt 0.999900 2.454100
vt 0.088700 3.467700
vt 0.015000 3.467700
vt 0.022600 3.039200
vt 0.081500 3.039200
vt -0.908500 2.462900
vt -0.989200 2.459300
vt -0.003200 3.039200
vt 0.002700 3.467700
vt 0.065200 3.410400
vt 0.072300 3.053500
vt 0.205600 3.976700
vt -0.830600 3.992300
vt -0.827500 3.549400
vt 0.205600 3.558200
vn -0.9109 0.2542 -0.3249
vn -0.8961 -0.2925 -0.3338
vn -0.8952 -0.2920 0.3367
vn -0.9025 0.2522 0.3491
vn -0.3573 -0.8517 0.3833
vn -0.8960 -0.2926 -0.3339
vn -0.3463 -0.8569 -0.3818
vn -0.8952 -0.2921 0.3367
vn -0.3306 -0.3436 0.8790
vn -0.3466 0.2873 0.8929
vn -0.3016 0.2932 -0.9072
vn -0.3029 -0.3504 -0.8863
vn -0.8961 -0.2926 -0.3339
vn -0.4450 0.7557 0.4806
vn -0.4298 0.7966 -0.4251
vn 0.1208 -0.9117 -0.3926
vn -0.3464 -0.8569 -0.3818
vn -0.3028 -0.3504 -0.8863
vn 0.1548 -0.3533 -0.9226
vn 0.1065 -0.3529 0.9296
vn 0.0962 -0.9163 0.3887
vn 0.0903 0.2967 0.9507
vn 0.1571 0.2895 -0.9442
vn -0.4450 0.7556 0.4806
vn -0.3464 0.2873 0.8930
vn 0.0904 0.2966 0.9507
vn 0.0629 0.8644 0.4989
vn -0.3016 0.2932 -0.9073
vn -0.4298 0.7965 -0.4252
vn 0.1172 0.8795 -0.4612
vn 0.1571 0.2896 -0.9442
vn -0.0822 -0.3483 -0.9338
vn -0.0659 -0.9086 -0.4123
vn -0.0820 -0.9138 0.3978
vn -0.0821 -0.3483 -0.9338
vn -0.0800 0.2884 -0.9542
vn -0.0997 -0.3411 0.9347
vn -0.0837 0.8728 0.4808
vn -0.0716 0.8670 -0.4932
vn -0.0800 0.2883 -0.9542
vn -0.0953 0.2966 0.9502
vn -0.0953 0.2965 0.9503
vn 0.3433 -0.3312 -0.8789
vn 0.8989 -0.2800 -0.3369
vn 0.4228 -0.8148 -0.3967
vn 0.9156 -0.3041 0.2630
vn 0.3662 -0.3643 0.8563
vn 0.4000 -0.8489 0.3454
vn 0.9148 0.2180 -0.3400
vn 0.3384 0.2664 -0.9025
vn 0.4703 0.7551 -0.4567
vn 0.3792 0.3220 0.8675
vn 0.9326 0.2489 0.2613
vn 0.4515 0.8036 0.3877
vn 0.3432 -0.3312 -0.8789
vn 0.4228 -0.8148 -0.3966
vn 0.3383 0.2663 -0.9026
vn 0.3432 -0.3313 -0.8789
vn 0.3383 0.2664 -0.9026
vn 0.3793 0.3220 0.8675
vn 0.3793 0.3220 0.8674
vn 0.9326 0.2489 0.2612
usemtl bails_hay
s 1
f 1/1/1 2/2/2 3/3/3
f 1/1/1 3/3/3 4/4/4
f 5/5/5 6/6/3 7/7/6
f 5/5/5 7/7/6 8/8/7
f 9/9/8 10/10/9 11/11/10
f 12/12/4 9/9/8 11/11/10
f 13/13/11 14/14/12 15/15/13
f 16/16/1 13/13/11 15/15/13
f 17/17/1 18/18/4 19/19/14
f 20/20/15 17/17/1 19/19/14
f 21/21/16 22/22/17 23/23/18
f 21/21/16 23/23/18 24/24/19
f 25/25/20 26/26/9 27/27/5
f 28/28/21 25/25/20 27/27/5
f 28/28/21 27/27/5 22/22/17
f 28/28/21 22/22/17 21/21/16
f 29/29/22 30/30/10 31/31/9
f 31/31/9 32/32/20 29/29/22
f 33/33/19 34/34/12 35/35/11
f 35/35/11 36/36/23 33/33/19
f 37/37/24 38/38/25 39/39/26
f 37/37/24 39/39/26 40/40/27
f 41/41/28 42/42/29 43/43/30
f 43/43/30 44/44/31 41/41/28
f 42/42/29 37/37/24 40/40/27
f 43/43/30 42/42/29 40/40/27
f 10/10/9 9/9/8 45/45/5
f 15/15/13 14/14/12 46/46/7
f 13/13/11 16/16/1 47/47/15
f 12/12/4 11/11/10 48/48/14
f 24/24/19 49/49/32 50/50/33
f 21/21/16 24/24/19 50/50/33
f 50/50/33 51/51/34 28/28/21
f 21/21/16 50/50/33 28/28/21
f 52/52/35 33/33/19 36/36/23
f 52/52/35 36/36/23 53/53/36
f 51/51/34 54/54/37 25/25/20
f 51/51/34 25/25/20 28/28/21
f 43/43/30 40/40/27 55/55/38
f 55/55/38 56/56/39 43/43/30
f 44/44/31 43/43/30 56/56/39
f 56/56/39 57/57/40 44/44/31
f 40/40/27 39/39/26 58/58/41
f 55/55/38 40/40/27 58/58/41
f 59/59/37 60/60/42 29/29/22
f 59/59/37 29/29/22 32/32/20
f 61/61/43 62/62/44 63/63/45
f 64/64/46 65/65/47 66/66/48
f 67/67/49 68/68/50 69/69/51
f 70/70/52 71/71/53 72/72/54
f 49/49/32 73/73/55 74/74/56
f 74/74/56 50/50/33 49/49/32
f 50/50/33 74/74/56 75/75/48
f 75/75/48 51/51/34 50/50/33
f 76/76/57 77/77/58 52/52/35
f 76/76/57 52/52/35 53/53/36
f 51/51/34 75/75/48 78/78/47
f 78/78/47 54/54/37 51/51/34
f 79/79/54 80/80/51 56/56/39
f 79/79/54 56/56/39 55/55/38
f 56/56/39 80/80/51 81/81/59
f 81/81/59 57/57/40 56/56/39
f 82/82/60 79/79/54 55/55/38
f 82/82/60 55/55/38 58/58/41
f 83/83/47 84/84/61 60/60/42
f 83/83/47 60/60/42 59/59/37
f 85/85/45 86/86/44 87/87/46
f 85/85/45 87/87/46 88/88/48
f 61/61/43 89/89/59 90/90/49
f 62/62/44 61/61/43 90/90/49
f 91/91/62 92/92/49 93/93/51
f 94/94/54 91/91/62 93/93/51
f 71/71/53 70/70/52 65/65/47
f 64/64/46 71/71/53 65/65/47
f 95/95/49 96/96/62 97/97/46
f 97/97/46 98/98/44 95/95/49
