# Wavefront OBJ file
# Exported by Misfit Model 3D 1.3.8
# Wed Oct 24 08:01:18 2018

mtllib mushroom.mtl

# 39 Vertices
v 0.0135 0.0 -0.18
v 0.0495 0.0 0.072
v 0.0135 0.162 -0.18
v 0.0495 0.162 0.081
v -0.0135 0.288 -0.126
v -0.0045 0.324 0.026991
v -0.2295 0.18 -0.279
v -0.2295 0.0 -0.288
v -0.1395 0.342 -0.153
v -0.4365 0.189 -0.117
v -0.4455 0.0 -0.117
v -0.2385 0.405 -0.09
v -0.4005 0.189 0.143991
v -0.4095 0.0 0.135
v -0.2205 0.423 0.081
v -0.1665 0.171 0.243
v -0.1665 0.0 0.243
v -0.1125 0.387 0.135
v 0.2025 0.513 -0.153
v 0.2295 0.504 0.107991
v -0.0315 0.549 -0.270009
v -0.2385 0.576 -0.117
v 0.0045 0.531 0.261
v -0.2205 0.414 0.081
v -0.2385 0.396 -0.09
v -0.2205 0.558 0.143991
v -0.2385 0.567 -0.117
v -0.1125 0.378 0.135
v 0.0045 0.522 0.261
v 0.0405 0.792 0.009
v -0.3375 0.621 0.521991
v -0.5985 0.693 0.126
v -0.5085 0.693 -0.342
v -0.1305 0.621 -0.612
v 0.1125 0.522 0.612
v 0.3375 0.522 -0.522009
v 0.5985 0.45 -0.126
v 0.5085 0.45 0.342
v -0.0225 0.486 -0.009

# 156 Texture Coordinates
vt 0.258681 0.982537
vt 0.016783 -0.018381
vt 0.258681 -0.018381
vt 0.258681 0.982537
vt 0.016783 0.982537
vt 0.016783 -0.018381
vt 0.258681 1.983456
vt 0.016783 0.982537
vt 0.258681 0.982537
vt 0.258681 1.983456
vt 0.016783 1.983456
vt 0.016783 0.982537
vt 0.742477 0.982537
vt 0.258681 0.982537
vt 0.258681 -0.018381
vt 0.742477 0.982537
vt 0.258681 -0.018381
vt 0.742477 -0.018381
vt 0.742477 1.983456
vt 0.258681 0.982537
vt 0.742477 0.982537
vt 0.742477 1.983456
vt 0.258681 1.983456
vt 0.258681 0.982537
vt 0.984375 0.982537
vt 0.742477 0.982537
vt 0.742477 -0.018381
vt 0.984375 0.982537
vt 0.742477 -0.018381
vt 0.984375 -0.018381
vt 0.984375 1.983456
vt 0.742477 0.982537
vt 0.984375 0.982537
vt 0.984375 1.983456
vt 0.742477 1.983456
vt 0.742477 0.982537
vt 0.742477 0.982537
vt 0.984375 0.982537
vt 0.984375 -0.018381
vt 0.742477 0.982537
vt 0.984375 -0.018381
vt 0.742477 -0.018381
vt 0.742477 1.983456
vt 0.984375 0.982537
vt 0.742477 0.982537
vt 0.742477 1.983456
vt 0.984375 1.983456
vt 0.984375 0.982537
vt 0.258681 0.982537
vt 0.742477 0.982537
vt 0.742477 -0.018381
vt 0.016783 1.983456
vt 0.258681 0.982537
vt 0.016783 0.982537
vt 0.258681 0.982537
vt 0.742477 -0.018381
vt 0.258681 -0.018381
vt 0.016783 0.982537
vt 0.258681 -0.018381
vt 0.016783 -0.018381
vt 0.016783 0.982537
vt 0.258681 0.982537
vt 0.258681 -0.018381
vt 0.258681 1.983456
vt 0.742477 0.982537
vt 0.258681 0.982537
vt 0.258681 1.983456
vt 0.742477 1.983456
vt 0.742477 0.982537
vt 0.016783 1.983456
vt 0.258681 1.983456
vt 0.258681 0.982537
vt 0.258681 2.984375
vt 0.016783 2.13985
vt 0.258681 2.13985
vt 0.258681 2.984375
vt 0.016783 2.984375
vt 0.016783 2.13985
vt 0.742477 2.984375
vt 0.258681 2.984375
vt 0.258681 2.13985
vt 0.742477 2.984375
vt 0.258681 2.13985
vt 0.742477 2.13985
vt 0.984375 2.984375
vt 0.742477 2.984375
vt 0.742477 2.13985
vt 0.984375 2.984375
vt 0.742477 2.13985
vt 0.984375 2.13985
vt 0.016783 2.984375
vt 0.258681 2.13985
vt 0.016783 2.13985
vt 0.016783 2.984375
vt 0.258681 2.984375
vt 0.258681 2.13985
vt 0.742477 2.984375
vt 0.984375 2.13985
vt 0.742477 2.13985
vt 0.742477 2.984375
vt 0.984375 2.984375
vt 0.984375 2.13985
vt 0.258681 2.984375
vt 0.742477 2.13985
vt 0.258681 2.13985
vt 0.258681 2.984375
vt 0.742477 2.984375
vt 0.742477 2.13985
vt 0.500942 0.986839
vt 0.85964 0.835529
vt 0.500942 0.018455
vt 0.142244 0.835529
vt 0.500942 0.986839
vt 0.500942 0.018455
vt 0.001884 0.018455
vt 0.142244 0.835529
vt 0.500942 0.018455
vt 0.85964 0.835529
vt 1.0 0.018455
vt 0.500942 0.018455
vt 0.142244 0.169765
vt 0.001884 0.986839
vt 0.500942 0.986839
vt 0.500942 0.018455
vt 0.142244 0.169765
vt 0.500942 0.986839
vt 0.85964 0.169765
vt 0.500942 0.018455
vt 0.500942 0.986839
vt 1.0 0.986839
vt 0.85964 0.169765
vt 0.500942 0.986839
vt 0.375 0.203125
vt 1.0 0.078125
vt 1.0 0.5
vt 0.125 0.515625
vt 0.375 0.203125
vt 1.0 0.5
vt 0.375 0.8125
vt 0.125 0.515625
vt 1.0 0.5
vt 1.0 0.9375
vt 0.375 0.8125
vt 1.0 0.5
vt 0.375 0.8125
vt 1.0 0.9375
vt 1.0 0.5
vt 0.375 0.8125
vt 1.0 0.5
vt 0.125 0.5
vt 1.0 0.5
vt 0.375 0.1875
vt 0.125 0.5
vt 1.0 0.5
vt 1.0 0.0625
vt 0.375 0.1875

# 156 Vertex Normals
vn 0.784774 0.220502 -0.579231
vn 0.981556 -0.013559 0.190694
vn 0.666916 0.017169 -0.744935
vn 0.784774 0.220502 -0.579231
vn 0.910546 0.180445 0.371949
vn 0.981556 -0.013559 0.190694
vn 0.880684 -0.038008 -0.472177
vn 0.910546 0.180445 0.371949
vn 0.784774 0.220502 -0.579231
vn 0.880684 -0.038008 -0.472177
vn 0.930578 -0.157723 0.330377
vn 0.910546 0.180445 0.371949
vn -0.00903 0.329319 -0.944176
vn 0.784774 0.220502 -0.579231
vn 0.666916 0.017169 -0.744935
vn -0.00903 0.329319 -0.944176
vn 0.666916 0.017169 -0.744935
vn -0.316402 0.043703 -0.947618
vn -0.112659 0.153739 -0.981668
vn 0.784774 0.220502 -0.579231
vn -0.00903 0.329319 -0.944176
vn -0.112659 0.153739 -0.981668
vn 0.682352 0.013651 -0.730896
vn 0.784774 0.220502 -0.579231
vn -0.834777 0.385984 -0.392637
vn -0.00903 0.329319 -0.944176
vn -0.316402 0.043703 -0.947618
vn -0.834777 0.385984 -0.392637
vn -0.316402 0.043703 -0.947618
vn -0.98062 0.04416 -0.190875
vn -0.559974 0.508514 -0.654097
vn -0.00903 0.329319 -0.944176
vn -0.834777 0.385984 -0.392637
vn -0.559974 0.508514 -0.654097
vn -0.112659 0.153739 -0.981668
vn -0.00903 0.329319 -0.944176
vn -0.740598 0.320775 0.590439
vn -0.834777 0.385984 -0.392637
vn -0.98062 0.04416 -0.190875
vn -0.740598 0.320775 0.590439
vn -0.98062 0.04416 -0.190875
vn -0.670796 0.005724 0.74162
vn -0.668287 0.650738 0.360461
vn -0.834777 0.385984 -0.392637
vn -0.740598 0.320775 0.590439
vn -0.668287 0.650738 0.360461
vn -0.559974 0.508514 -0.654097
vn -0.834777 0.385984 -0.392637
vn 0.157987 0.205748 0.965768
vn -0.740598 0.320775 0.590439
vn -0.670796 0.005724 0.74162
vn 0.839059 -0.13201 0.527781
vn 0.157987 0.205748 0.965768
vn 0.910546 0.180445 0.371949
vn 0.157987 0.205748 0.965768
vn -0.670796 0.005724 0.74162
vn 0.309875 -0.016567 0.950633
vn 0.910546 0.180445 0.371949
vn 0.309875 -0.016567 0.950633
vn 0.981556 -0.013559 0.190694
vn 0.910546 0.180445 0.371949
vn 0.157987 0.205748 0.965768
vn 0.309875 -0.016567 0.950633
vn 0.143154 0.129416 0.981203
vn -0.740598 0.320775 0.590439
vn 0.157987 0.205748 0.965768
vn 0.201831 -0.097485 0.974557
vn -0.668287 0.650738 0.360461
vn -0.740598 0.320775 0.590439
vn 0.85636 -0.283604 0.431529
vn 0.201831 -0.097485 0.974557
vn 0.157987 0.205748 0.965768
vn 0.637582 -0.708727 -0.301985
vn 0.85636 -0.283604 0.431529
vn 0.812527 -0.290855 -0.505176
vn 0.637582 -0.708727 -0.301985
vn 0.438047 -0.79433 0.420898
vn 0.84432 -0.433671 0.314728
vn -0.099905 -0.386364 -0.91692
vn 0.637582 -0.708727 -0.301985
vn 0.771532 -0.145878 -0.61924
vn -0.099905 -0.386364 -0.91692
vn 0.46645 -0.384984 -0.796374
vn -0.112659 0.153739 -0.981668
vn -0.594399 -0.129369 -0.793696
vn -0.099905 -0.386364 -0.91692
vn -0.112659 0.153739 -0.981668
vn -0.594399 -0.129369 -0.793696
vn -0.112659 0.153739 -0.981668
vn -0.559974 0.508514 -0.654097
vn 0.438047 -0.79433 0.420898
vn 0.201831 -0.097485 0.974557
vn 0.747936 -0.399028 0.530442
vn 0.438047 -0.79433 0.420898
vn 0.304215 -0.75521 0.580613
vn 0.34137 -0.274285 0.899019
vn -0.918858 -0.145158 0.366918
vn -0.995822 -0.018512 0.089421
vn -0.727295 -0.257766 0.636081
vn -0.918858 -0.145158 0.366918
vn -0.997545 0.010922 0.069175
vn -0.995822 -0.018512 0.089421
vn -0.490298 -0.325818 0.808363
vn -0.727295 -0.257766 0.636081
vn -0.504597 -0.298774 0.81001
vn -0.490298 -0.325818 0.808363
vn -0.918858 -0.145158 0.366918
vn -0.727295 -0.257766 0.636081
vn -0.132875 0.985236 0.107958
vn 0.008649 0.946717 0.321951
vn 0.203769 0.978198 0.040089
vn -0.082558 0.985414 -0.148807
vn -0.132875 0.985236 0.107958
vn 0.203769 0.978198 0.040089
vn 0.12602 0.947004 -0.29547
vn -0.082558 0.985414 -0.148807
vn 0.203769 0.978198 0.040089
vn 0.008649 0.946717 0.321951
vn 0.256591 0.893186 0.369296
vn 0.203769 0.978198 0.040089
vn 0.374288 0.894264 -0.245358
vn 0.12602 0.947004 -0.29547
vn 0.203769 0.978198 0.040089
vn 0.516889 0.855498 -0.030787
vn 0.374288 0.894264 -0.245358
vn 0.203769 0.978198 0.040089
vn 0.466771 0.855816 0.222944
vn 0.516889 0.855498 -0.030787
vn 0.203769 0.978198 0.040089
vn 0.256591 0.893186 0.369296
vn 0.466771 0.855816 0.222944
vn 0.203769 0.978198 0.040089
vn -0.070695 -0.995106 -0.06904
vn -0.091444 -0.995149 0.036271
vn -0.207302 -0.977467 -0.039788
vn -0.125182 -0.979698 -0.156595
vn -0.070695 -0.995106 -0.06904
vn -0.207302 -0.977467 -0.039788
vn -0.231383 -0.957376 -0.172896
vn -0.125182 -0.979698 -0.156595
vn -0.207302 -0.977467 -0.039788
vn -0.322638 -0.93972 -0.113274
vn -0.231383 -0.957376 -0.172896
vn -0.207302 -0.977467 -0.039788
vn -0.340525 -0.940167 -0.011318
vn -0.322638 -0.93972 -0.113274
vn -0.207302 -0.977467 -0.039788
vn -0.340525 -0.940167 -0.011318
vn -0.207302 -0.977467 -0.039788
vn -0.281708 -0.956481 0.076059
vn -0.207302 -0.977467 -0.039788
vn -0.178563 -0.979274 0.095588
vn -0.281708 -0.956481 0.076059
vn -0.207302 -0.977467 -0.039788
vn -0.091444 -0.995149 0.036271
vn -0.178563 -0.979274 0.095588

# 13, 24 grouped triangles

usemtl material_12
o 13
g 13

f 3/1/1 2/2/2 1/3/3
f 3/4/4 4/5/5 2/6/6
f 5/7/7 4/8/8 3/9/9
f 5/10/10 6/11/11 4/12/12
f 7/13/13 3/14/14 1/15/15
f 7/16/16 1/17/17 8/18/18
f 9/19/19 3/20/20 7/21/21
f 9/22/22 5/23/23 3/24/24
f 10/25/25 7/26/26 8/27/27
f 10/28/28 8/29/29 11/30/30
f 12/31/31 7/32/32 10/33/33
f 12/34/34 9/35/35 7/36/36
f 13/37/37 10/38/38 11/39/39
f 13/40/40 11/41/41 14/42/42
f 15/43/43 10/44/44 13/45/45
f 15/46/46 12/47/47 10/48/48
f 16/49/49 13/50/50 14/51/51
f 6/52/52 16/53/53 4/54/54
f 16/55/55 14/56/56 17/57/57
f 4/58/58 17/59/59 2/60/60
f 4/61/61 16/62/62 17/63/63
f 18/64/64 13/65/65 16/66/66
f 18/67/67 15/68/68 13/69/69
f 6/70/70 18/71/71 16/72/72
# 14, 12 grouped triangles

usemtl material_13
o 14
g 14

f 19/73/73 6/74/74 5/75/75
f 19/76/76 20/77/77 6/78/78
f 21/79/79 19/80/80 5/81/81
f 21/82/82 5/83/83 9/84/84
f 22/85/85 21/86/86 9/87/87
f 22/88/88 9/89/89 12/90/90
f 20/91/91 18/92/92 6/93/93
f 20/94/94 23/95/95 18/96/96
f 26/97/97 25/98/98 24/99/99
f 26/100/100 27/101/101 25/102/102
f 29/103/103 24/104/104 28/105/105
f 29/106/106 26/107/107 24/108/108
# 15, 4 grouped triangles

usemtl material_14
o 15
g 15

f 32/109/109 31/110/110 30/111/111
f 33/112/112 32/113/113 30/114/114
f 34/115/115 33/116/116 30/117/117
f 31/118/118 35/119/119 30/120/120
# 16, 4 grouped triangles

usemtl material_15
o 16
g 16

f 36/121/121 34/122/122 30/123/123
f 37/124/124 36/125/125 30/126/126
f 38/127/127 37/128/128 30/129/129
f 35/130/130 38/131/131 30/132/132
# 17, 8 grouped triangles

usemtl material_16
o 17
g 17

f 37/133/133 38/134/134 39/135/135
f 36/136/136 37/137/137 39/138/138
f 34/139/139 36/140/140 39/141/141
f 33/142/142 34/143/143 39/144/144
f 32/145/145 33/146/146 39/147/147
f 32/148/148 39/149/149 31/150/150
f 39/151/151 35/152/152 31/153/153
f 39/154/154 38/155/155 35/156/156
