# Blender v2.75 (sub 0) OBJ File: ''
# www.blender.org
mtllib Odd Mushroom.mtl
o node-014CA613_geom-014CA613
v -0.135000 -0.239300 -0.096300
v -0.207300 -0.197600 -0.048100
v -0.112500 -0.200300 -0.112800
v -0.197100 -0.151400 -0.056400
v -0.207300 -0.197600 -0.048100
v -0.207300 -0.197600 0.048100
v -0.197100 -0.151400 -0.056400
v -0.197100 -0.151400 0.056400
v -0.135000 -0.239300 0.096300
v -0.112500 -0.200300 0.112800
v -0.062800 -0.281000 0.048100
v -0.027900 -0.249100 0.056400
v -0.062800 -0.281000 -0.048100
v -0.027900 -0.249100 -0.056400
v -0.062800 -0.281000 -0.048100
v -0.027900 -0.249100 -0.056400
v -0.207300 -0.197600 -0.048100
v -0.135000 -0.239300 -0.096300
v -0.151600 -0.267900 -0.000000
v -0.207300 -0.197600 0.048100
v -0.135000 -0.239300 0.096300
v -0.062800 -0.281000 0.048100
v -0.062800 -0.281000 -0.048100
v 0.046500 -0.058400 0.038600
v 0.046500 -0.058400 -0.038600
v -0.011300 -0.025000 0.077200
v -0.069200 0.008400 0.038600
v -0.069200 0.008400 -0.038600
v -0.011300 -0.025000 -0.077200
v -0.069200 0.008400 -0.038600
v 0.046500 -0.058400 -0.038600
v -0.012500 -0.027100 -0.000000
v -0.035200 -0.066400 -0.199100
v 0.086700 -0.136800 -0.140800
v -0.157100 0.004000 -0.140800
v -0.207600 0.033100 0.000000
v -0.157100 0.004000 0.140800
v -0.035200 -0.066400 0.199100
v 0.086700 -0.136800 0.140800
v 0.137200 -0.165900 -0.000000
vt 0.030000 0.020000
vt 0.410000 0.020000
vt 0.030000 0.080000
vt 0.410000 0.080000
vt 0.410000 0.240000
vt 0.030000 0.240000
vt 0.690000 0.020000
vt 0.690000 0.080000
vt 0.690000 0.240000
vt 0.750000 0.020000
vt 0.970000 0.020000
vt 0.970000 0.240000
vt 0.970000 0.690000
vt 0.970000 0.980000
vt 0.560000 0.980000
vn -0.564000 -0.023800 -0.825400
vn 0.261700 -0.500200 -0.825400
vn 0.261600 -0.500800 -0.825100
vn 0.503500 -0.116500 -0.856100
vn 0.503900 -0.117100 -0.855800
vn -0.352600 0.377500 -0.856200
vn -0.352800 0.377700 -0.856100
vn -0.976500 0.215600 0.000000
vn -0.564000 -0.023800 0.825400
vn 0.262000 -0.500300 0.825300
vn 0.261400 -0.500700 0.825200
vn 0.674700 -0.738100 -0.000000
vn 0.931600 -0.363500 -0.000000
vn 0.504000 -0.116800 0.855800
vn 0.503400 -0.116800 0.856100
vn -0.352900 0.377600 0.856100
vn -0.352600 0.377600 0.856200
vn -0.780700 0.624900 0.000000
vn -0.624200 -0.713000 -0.319400
vn -0.783800 -0.621000 -0.000000
vn -0.624200 -0.713000 0.319400
vn -0.305200 -0.897200 0.319100
vn -0.145900 -0.989300 -0.000000
vn -0.305200 -0.897200 -0.319100
vn -0.564900 -0.794900 0.221300
vn -0.406200 -0.886600 0.221300
vn -0.293600 -0.951600 0.091400
vn -0.293600 -0.951600 -0.091400
vn -0.406200 -0.886600 -0.221300
vn -0.564900 -0.794900 -0.221300
vn -0.677000 -0.730200 -0.091900
vn -0.677000 -0.730200 0.091900
usemtl material-00DB0535
s off
f 1/1/1 2/2/1 3/3/1
f 1/1/2 3/3/2 16/4/2
f 15/2/3 1/1/3 16/4/3
f 16/4/4 3/3/4 31/5/4
f 3/3/5 29/6/5 31/5/5
f 3/3/6 4/4/6 29/6/6
f 2/2/1 4/4/1 3/3/1
f 4/4/7 30/5/7 29/6/7
f 5/7/8 6/2/8 7/8/8
f 6/2/8 8/4/8 7/8/8
f 6/2/9 9/1/9 8/4/9
f 9/1/9 10/3/9 8/4/9
f 9/1/10 11/2/10 10/3/10
f 11/2/11 12/4/11 10/3/11
f 11/2/12 13/7/12 12/4/12
f 13/7/12 14/8/12 12/4/12
f 12/4/13 14/8/13 24/5/13
f 12/4/14 24/5/14 26/6/14
f 10/3/15 12/4/15 26/6/15
f 10/3/16 26/6/16 27/5/16
f 8/4/17 10/3/17 27/5/17
f 8/4/18 27/5/18 28/9/18
f 7/8/18 8/4/18 28/9/18
f 17/10/19 18/11/19 19/12/19
f 20/11/20 17/10/20 19/12/20
f 21/10/21 20/11/21 19/12/21
f 22/11/22 21/10/22 19/12/22
f 23/10/23 22/11/23 19/12/23
f 18/11/24 23/10/24 19/12/24
f 14/8/13 25/9/13 24/5/13
f 32/13/25 33/14/25 34/15/25
f 32/13/26 35/15/26 33/14/26
f 32/13/27 36/14/27 35/15/27
f 32/13/28 37/15/28 36/14/28
f 32/13/29 38/14/29 37/15/29
f 32/13/30 39/15/30 38/14/30
f 32/13/31 40/14/31 39/15/31
f 32/13/32 34/15/32 40/14/32
o node-03B32EE5_geom-03B32EE5
v 0.086700 -0.136800 -0.140800
v -0.035200 -0.066400 -0.199100
v 0.138300 -0.114000 -0.174100
v -0.012500 -0.027000 -0.246200
v -0.157100 0.004000 -0.140800
v -0.163200 0.060000 -0.174100
v -0.207600 0.033100 0.000000
v -0.225700 0.096100 0.000000
v -0.157100 0.004000 0.140800
v -0.163200 0.060000 0.174100
v -0.035200 -0.066400 0.199100
v -0.012500 -0.027000 0.246200
v 0.086700 -0.136800 0.140800
v 0.138300 -0.114000 0.174100
v 0.137200 -0.165900 -0.000000
v 0.200700 -0.150100 -0.000000
v 0.165400 -0.076500 -0.178800
v 0.010600 0.012900 -0.252900
v 0.185600 0.050800 -0.132600
v 0.070700 0.117100 -0.187600
v -0.144300 0.102300 -0.178800
v -0.044200 0.183400 -0.132600
v -0.208400 0.139300 0.000000
v -0.091700 0.210900 0.000000
v -0.144300 0.102300 0.178800
v -0.044200 0.183400 0.132600
v 0.010600 0.012900 0.252900
v 0.070700 0.117100 0.187600
v 0.165400 -0.076500 0.178800
v 0.185600 0.050800 0.132600
v 0.229500 -0.113500 -0.000000
v 0.233200 0.023300 0.000000
v 0.212100 0.139200 -0.111400
v 0.115600 0.194900 -0.157600
v 0.019100 0.250600 -0.111400
v -0.020800 0.273700 0.000000
v 0.019100 0.250600 0.111400
v 0.115600 0.194900 0.157600
v 0.212100 0.139200 0.111400
v 0.252100 0.116100 0.000000
v 0.197800 0.216700 -0.060300
v 0.145600 0.246800 -0.085300
v 0.093400 0.277000 -0.060300
v 0.071800 0.289500 0.000000
v 0.093400 0.277000 0.060300
v 0.145600 0.246800 0.085300
v 0.197800 0.216700 0.060300
v 0.219500 0.204200 0.000000
v 0.156200 0.265100 0.000000
v -0.135000 -0.239300 -0.096300
v -0.207300 -0.197600 -0.048100
v -0.112500 -0.200300 -0.112800
v -0.197100 -0.151400 -0.056400
v -0.207300 -0.197600 -0.048100
v -0.207300 -0.197600 0.048100
v -0.197100 -0.151400 -0.056400
v -0.197100 -0.151400 0.056400
v -0.135000 -0.239300 0.096300
v -0.112500 -0.200300 0.112800
v -0.062800 -0.281000 0.048100
v -0.027900 -0.249100 0.056400
v -0.062800 -0.281000 -0.048100
v -0.027900 -0.249100 -0.056400
v -0.062800 -0.281000 -0.048100
v -0.027900 -0.249100 -0.056400
v -0.207300 -0.197600 -0.048100
v -0.135000 -0.239300 -0.096300
v -0.151600 -0.267900 -0.000000
v -0.207300 -0.197600 0.048100
v -0.135000 -0.239300 0.096300
v -0.062800 -0.281000 0.048100
v -0.062800 -0.281000 -0.048100
v 0.046500 -0.058400 0.038600
v 0.046500 -0.058400 -0.038600
v -0.011300 -0.025000 0.077200
v -0.069200 0.008400 0.038600
v -0.069200 0.008400 -0.038600
v -0.011300 -0.025000 -0.077200
v -0.069200 0.008400 -0.038600
v 0.046500 -0.058400 -0.038600
v -0.012500 -0.027100 -0.000000
v -0.035200 -0.066400 -0.199100
v 0.086700 -0.136800 -0.140800
v -0.157100 0.004000 -0.140800
v -0.207600 0.033100 0.000000
v -0.157100 0.004000 0.140800
v -0.035200 -0.066400 0.199100
v 0.086700 -0.136800 0.140800
v 0.137200 -0.165900 -0.000000
vt 0.470000 0.270000
vt 0.030000 0.270000
vt 0.590000 0.360000
vt 0.970000 0.360000
vt 0.810000 0.270000
vt 0.030000 0.360000
vt 0.590000 0.440000
vt 0.970000 0.440000
vt 0.030000 0.480000
vt 0.440000 0.640000
vt 0.780000 0.640000
vt 0.030000 0.640000
vt 0.380000 0.810000
vt 0.690000 0.810000
vt 0.030000 0.810000
vt 0.220000 0.940000
vt 0.440000 0.940000
vt 0.030000 0.940000
vt 0.030000 0.970000
vn -0.105800 -0.736500 -0.668200
vn 0.233200 -0.932200 -0.276900
vn 0.232100 -0.932700 -0.276000
vn 0.232000 -0.932600 0.276500
vn 0.233500 -0.932200 0.276400
vn -0.105600 -0.736600 0.668000
vn -0.106300 -0.736900 0.667600
vn -0.585200 -0.460600 0.667400
vn -0.923700 -0.265100 0.276600
vn -0.923700 -0.265400 0.276400
vn -0.923600 -0.265400 -0.276600
vn -0.923700 -0.265100 -0.276500
vn -0.585200 -0.460600 -0.667400
vn -0.106000 -0.737000 -0.667600
vn 0.262300 -0.304300 -0.915800
vn 0.726800 -0.572800 -0.379100
vn 0.727200 -0.572200 -0.379300
vn 0.727200 -0.572200 0.379100
vn 0.726700 -0.572700 0.379200
vn 0.262500 -0.304400 0.915700
vn 0.261700 -0.305200 0.915600
vn -0.394900 0.074800 0.915700
vn -0.394900 0.074700 0.915700
vn -0.859800 0.342100 0.379000
vn -0.858800 0.343900 0.379600
vn -0.859000 0.344000 -0.379100
vn -0.859700 0.341900 -0.379500
vn -0.394900 0.074700 -0.915700
vn -0.394900 0.074900 -0.915700
vn 0.261900 -0.305400 -0.915500
vn 0.520600 0.217100 -0.825700
vn 0.939300 -0.024800 -0.342300
vn 0.939400 -0.025400 -0.342000
vn 0.939200 -0.025400 0.342400
vn 0.939400 -0.025000 0.341900
vn 0.520500 0.217100 0.825800
vn 0.520700 0.217100 0.825700
vn -0.072500 0.559300 0.825800
vn -0.072100 0.559400 0.825700
vn -0.491200 0.801100 0.342100
vn -0.491400 0.801000 0.341900
vn -0.491400 0.800900 -0.342100
vn -0.491300 0.801100 -0.341900
vn -0.072300 0.559600 -0.825600
vn -0.072300 0.559200 -0.825800
vn 0.520600 0.217200 -0.825700
vn 0.464300 0.072500 -0.882700
vn 0.911900 -0.185600 -0.365900
vn 0.911900 -0.185700 -0.365900
vn 0.911900 -0.185700 0.365900
vn 0.912000 -0.185600 0.365900
vn 0.464400 0.072500 0.882700
vn 0.464300 0.072400 0.882700
vn -0.169600 0.438300 0.882700
vn -0.617200 0.696700 0.365500
vn -0.617200 0.696800 0.365600
vn -0.617200 0.696800 -0.365500
vn -0.617200 0.696700 -0.365600
vn -0.169600 0.438300 -0.882700
vn 0.464400 0.072400 -0.882700
vn 0.593600 0.516500 -0.617200
vn 0.906200 0.336300 -0.256400
vn 0.906600 0.335500 -0.256000
vn 0.906400 0.335400 0.256700
vn 0.906500 0.335900 0.255800
vn 0.593500 0.516500 0.617300
vn 0.593600 0.516500 0.617100
vn 0.151200 0.772200 0.617100
vn 0.150200 0.772200 0.617300
vn -0.162700 0.952900 0.255800
vn -0.162600 0.952900 0.255800
vn -0.162600 0.953000 -0.255800
vn -0.162600 0.952900 -0.255900
vn 0.150600 0.771800 -0.617800
vn 0.150500 0.772500 -0.617000
vn 0.593500 0.516700 -0.617100
vn 0.568500 0.787000 -0.239500
vn 0.689900 0.717100 -0.099600
vn 0.689900 0.717100 0.099600
vn 0.568500 0.787000 0.239500
vn 0.397700 0.885700 0.239400
vn 0.276400 0.955900 0.099200
vn 0.276400 0.955900 -0.099200
vn 0.397700 0.885700 -0.239400
usemtl material-01DF725B
s off
f 41/16/33 42/17/33 43/18/33
f 41/16/34 43/18/34 56/19/34
f 55/20/35 41/16/35 56/19/35
f 55/20/36 56/19/36 54/18/36
f 53/16/37 55/20/37 54/18/37
f 53/16/38 54/18/38 52/21/38
f 51/17/39 53/16/39 52/21/39
f 51/17/40 52/21/40 50/18/40
f 49/16/40 51/17/40 50/18/40
f 49/16/41 50/18/41 48/19/41
f 47/20/42 49/16/42 48/19/42
f 47/20/43 48/19/43 46/18/43
f 45/16/44 47/20/44 46/18/44
f 45/16/45 46/18/45 44/21/45
f 42/17/45 45/16/45 44/21/45
f 42/17/46 44/21/46 43/18/46
f 43/18/47 44/21/47 57/22/47
f 43/18/48 57/22/48 71/23/48
f 56/19/49 43/18/49 71/23/49
f 56/19/50 71/23/50 69/22/50
f 54/18/51 56/19/51 69/22/51
f 54/18/52 69/22/52 67/24/52
f 52/21/53 54/18/53 67/24/53
f 52/21/54 67/24/54 65/22/54
f 50/18/55 52/21/55 65/22/55
f 50/18/56 65/22/56 63/23/56
f 48/19/57 50/18/57 63/23/57
f 48/19/58 63/23/58 61/22/58
f 46/18/59 48/19/59 61/22/59
f 46/18/60 61/22/60 58/24/60
f 44/21/61 46/18/61 58/24/61
f 44/21/62 58/24/62 57/22/62
f 57/22/63 58/24/63 59/25/63
f 57/22/64 59/25/64 72/26/64
f 71/23/65 57/22/65 72/26/65
f 71/23/66 72/26/66 70/25/66
f 69/22/67 71/23/67 70/25/67
f 69/22/68 70/25/68 68/27/68
f 67/24/69 69/22/69 68/27/69
f 67/24/70 68/27/70 66/25/70
f 65/22/71 67/24/71 66/25/71
f 65/22/72 66/25/72 64/26/72
f 63/23/73 65/22/73 64/26/73
f 63/23/74 64/26/74 62/25/74
f 61/22/75 63/23/75 62/25/75
f 61/22/76 62/25/76 60/27/76
f 58/24/77 61/22/77 60/27/77
f 58/24/78 60/27/78 59/25/78
f 59/25/79 60/27/79 73/28/79
f 59/25/80 73/28/80 80/29/80
f 72/26/81 59/25/81 80/29/81
f 72/26/82 80/29/82 79/28/82
f 70/25/83 72/26/83 79/28/83
f 70/25/84 79/28/84 78/30/84
f 68/27/85 70/25/85 78/30/85
f 68/27/86 78/30/86 77/28/86
f 66/25/86 68/27/86 77/28/86
f 66/25/87 77/28/87 76/29/87
f 64/26/88 66/25/88 76/29/88
f 64/26/89 76/29/89 75/28/89
f 62/25/90 64/26/90 75/28/90
f 62/25/91 75/28/91 74/30/91
f 60/27/91 62/25/91 74/30/91
f 60/27/92 74/30/92 73/28/92
f 73/28/93 74/30/93 81/31/93
f 73/28/94 81/31/94 88/32/94
f 80/29/95 73/28/95 88/32/95
f 80/29/96 88/32/96 87/31/96
f 79/28/97 80/29/97 87/31/97
f 79/28/98 87/31/98 86/33/98
f 78/30/99 79/28/99 86/33/99
f 78/30/100 86/33/100 85/31/100
f 77/28/101 78/30/101 85/31/101
f 77/28/102 85/31/102 84/32/102
f 76/29/103 77/28/103 84/32/103
f 76/29/104 84/32/104 83/31/104
f 75/28/105 76/29/105 83/31/105
f 75/28/106 83/31/106 82/33/106
f 74/30/107 75/28/107 82/33/107
f 74/30/108 82/33/108 81/31/108
f 81/31/109 82/33/109 89/34/109
f 88/32/110 81/31/110 89/34/110
f 87/31/111 88/32/111 89/34/111
f 86/33/112 87/31/112 89/34/112
f 85/31/113 86/33/113 89/34/113
f 84/32/114 85/31/114 89/34/114
f 83/31/115 84/32/115 89/34/115
f 82/33/116 83/31/116 89/34/116
