# Wavefront OBJ exported by MilkShape 3D

mtllib skSpikyPlantMesh.mtl

v -21.057196 9.076714 12.675632
v -21.057196 9.076714 12.675632
v -21.057196 9.076714 12.675632
v -21.057196 9.076714 12.675632
v 15.928235 7.033922 9.251701
v 15.928235 7.033922 9.251701
v 15.928235 7.033922 9.251701
v -11.754474 39.842281 -2.707542
v -17.856783 12.408297 -19.145933
v -17.856783 12.408297 -19.145933
v -17.856783 12.408297 -19.145933
v 19.203203 12.593142 -18.601223
v 19.203203 12.593142 -18.601223
v 19.203203 12.593142 -18.601223
v 17.250877 25.380371 11.356865
v 17.250877 25.380371 11.356865
v -1.902463 6.475540 -5.271804
v -1.902463 6.475540 -5.271804
v -18.624950 28.488346 16.604446
v -15.717211 34.818096 -18.465622
v -1.200731 13.403524 20.902367
v -1.200731 13.403524 20.902367
v 19.355787 26.955805 -18.947962
v -25.809523 20.471622 -1.762875
v -25.809523 20.471622 -1.762875
v -1.917485 17.774847 -25.768345
v -1.917485 17.774847 -25.768345
v 1.346493 34.429035 -16.808784
v 2.650651 33.829659 13.383142
v 24.532347 15.820377 -2.910294
v 24.532347 15.820377 -2.910294
v 14.948302 32.962872 -2.650504
v 2.222193 39.436665 -1.593412
v 8.627908 -0.000023 5.832335
v -1.540513 -0.000023 -15.426093
v 6.183202 -0.000023 -6.110883
v -11.435067 -0.000023 -1.615895
v -0.052401 6.475541 -0.030862
v -0.052401 6.475541 -0.030862
v 0.092716 -0.000023 3.733233
v -5.195817 -0.000023 -6.132971
v -16.627399 -0.000023 9.341289
v -7.932953 -0.000023 4.738261
v 2.878640 6.475540 -5.255562
v 2.878640 6.475540 -5.255562
v 18.546289 -0.000023 11.095687
v 13.790295 -0.000023 1.849246
v 6.033797 -0.000023 -21.070862
v 4.451429 -0.000023 -13.399149
v 14.450523 31.006233 -5.767477
v 26.195663 42.700882 -1.124019
v 15.306026 28.852772 -2.342171
v 15.306026 28.852772 -2.342171
v 11.251246 19.542736 -18.137066
v 18.252134 26.194008 -29.384195
v 13.276071 22.792238 -16.574173
v 13.276071 22.792238 -16.574173
v 16.098503 18.555180 1.577143
v 30.881548 18.835501 10.493204
v 15.368200 15.800824 4.574131
v 15.368200 15.800824 4.574131
v -9.210610 17.918842 13.016350
v -18.470938 16.579792 25.131065
v -11.997242 15.318973 11.411012
v -11.997242 15.318973 11.411012
v -9.884953 34.682087 4.548256
v -13.602192 42.566841 16.059216
v -6.304765 33.631065 6.331329
v -6.304765 33.631065 6.331329
v 1.626439 30.469961 -17.273251
v 0.039343 41.168530 -27.861353
v 4.044530 33.072594 -15.156441
v 4.044530 33.072594 -15.156441
v -12.384727 24.954458 -13.159612
v -24.262449 30.509792 -21.347721
v -13.514731 27.426493 -10.042904
v -13.514731 27.426493 -10.042904
v -22.371483 20.820469 -4.980246
v -36.141121 19.615782 -2.616020
v -22.556923 22.940033 -1.434164
v -22.556923 22.940033 -1.434164
v 9.518562 2.417015 2.521328
v 12.297060 31.861736 -2.342180
v 9.109170 23.004736 -17.410545
v -22.186045 18.700905 -1.434145
v -0.194589 33.285320 -14.852637
v -12.671513 19.520531 11.416817
v -9.925004 31.639437 7.348690
v -15.184029 23.535276 -10.466737
v 14.931420 19.974047 5.282069
v -10.460217 2.118364 1.161907
v 0.009525 2.241900 -13.882944
v -3.223780 4.606274 -5.529182
v 4.003746 4.606274 -5.511925
v 0.076720 4.606274 0.963284
# 95 vertices

vt 0.784314 0.627451
vt 0.694118 0.498039
vt 0.800000 0.450980
vt 0.690196 0.619608
vt 0.686275 0.741176
vt 0.815686 0.752941
vt 0.580392 0.627451
vt 0.576471 0.752941
vt 0.537255 0.447059
vt 0.662745 0.309804
vt 0.788235 0.274510
vt 0.803922 0.450980
vt 0.980392 0.533333
vt 0.952941 0.631373
vt 0.952941 0.752941
vt 0.811765 0.913725
vt 0.658824 0.937255
vt 0.549020 0.968627
vt 0.360784 0.803922
vt 0.423529 0.635294
vt 0.392157 0.443137
vt 0.513726 0.278431
vt 0.250980 0.784314
vt 0.203922 0.627451
vt 0.109804 0.729412
vt 0.023529 0.654902
vt 0.172549 0.596078
vt 0.027451 0.525490
vt 0.160784 0.431373
vt 0.286275 0.450980
vt 0.203922 0.584314
vt 0.376471 0.568627
vt 0.372549 0.686274
vt 0.894118 0.325490
vt 0.839216 0.090196
vt 0.952941 0.090196
vt 0.317647 0.250980
vt 0.309804 0.278431
vt 0.243137 0.211765
vt 0.286275 0.317647
vt 0.368627 0.364706
vt 0.258824 0.203922
vt 0.211765 0.278431
vt 0.211765 0.305882
vt 0.121569 0.294118
vt 0.129412 0.329412
vt 0.039216 0.380392
vt 0.082353 0.286274
vt 0.172549 0.211765
vt 0.152941 0.203922
vt 0.211765 0.125490
vt 0.168627 0.129412
vt 0.156863 0.050980
vt 0.227451 0.109804
vt 0.207843 0.247059
vt 0.211765 0.231373
vt 0.200000 0.231373
# 57 texture coordinates

vn 0.774146 0.628435 0.075936
vn 0.197403 0.578696 0.791292
vn 0.890833 0.444466 0.094162
vn 0.247532 0.968844 0.008347
vn 0.112647 0.685994 -0.718834
vn 0.671216 0.498224 -0.548856
vn -0.556406 0.830123 0.036171
vn -0.476361 0.610475 -0.632772
vn -0.533691 0.485830 0.692201
vn 0.101883 0.326683 0.939627
vn 0.351607 0.029961 0.935668
vn 0.068825 -0.118623 0.990551
vn 0.939909 0.171137 0.295437
vn 0.857514 0.476480 0.194000
vn 0.967150 0.247486 -0.058059
vn 0.133717 0.189203 -0.972791
vn -0.050135 0.480775 -0.875409
vn -0.202386 0.276209 -0.939547
vn -0.931820 0.315132 -0.180009
vn -0.808088 0.588033 0.034801
vn -0.904908 0.374620 0.201993
vn -0.124631 0.091129 0.988009
vn -0.034654 -0.949353 0.312293
vn -0.055318 -0.998344 0.015789
vn 0.073885 -0.994990 -0.067346
vn 0.359437 -0.931464 -0.056398
vn 0.189784 -0.964029 -0.186093
vn 0.178339 -0.958751 -0.221341
vn 0.013234 -0.877547 -0.479308
vn -0.213000 -0.962720 -0.166736
vn -0.237394 -0.956567 -0.169187
vn -0.473705 -0.879361 -0.048258
vn -0.179641 -0.978983 -0.096550
vn -0.990218 -0.086621 -0.109380
vn -0.167955 -0.014695 -0.985685
vn -0.098065 -0.868776 0.485399
vn -0.084870 -0.007421 0.996364
vn -0.353379 -0.051582 0.934057
vn 0.538057 -0.777593 0.325336
vn 0.781374 0.126039 0.611203
vn -0.628500 0.771304 -0.100387
vn -0.900010 -0.143866 -0.411442
vn -0.614336 0.337135 -0.713395
vn 0.587638 0.724024 -0.361208
vn 0.519984 -0.132078 -0.843903
vn -0.734567 -0.649428 0.196606
vn -0.678049 0.214297 0.703083
vn -0.161778 0.843300 -0.512517
vn 0.352447 0.331143 -0.875286
vn 0.801945 -0.575970 0.158564
vn 0.087394 -0.880345 -0.466214
vn -0.688314 0.631227 -0.357458
vn -0.002067 0.966699 0.255909
vn 0.977825 0.082820 0.192352
vn 0.363997 -0.728278 -0.580619
vn 0.503474 0.198079 -0.840999
vn -0.152672 0.758869 0.633095
vn -0.317134 -0.190784 0.928993
vn 0.706796 0.706684 0.032191
vn 0.703269 -0.509402 -0.495905
vn 0.190769 0.190744 -0.962925
vn -0.558065 0.658898 0.504397
vn -0.049125 -0.049123 0.997584
vn -0.260315 0.726513 0.635936
vn 0.438128 0.801299 -0.407387
vn -0.516518 0.619489 -0.591136
vn -0.513914 -0.633773 0.578121
vn 0.462939 -0.452009 0.762480
vn -0.058875 0.520768 -0.851666
vn 0.802338 -0.355486 -0.479461
vn -0.091297 -0.707299 -0.700994
vn -0.827656 0.486454 0.279905
vn 0.079846 0.851855 0.517655
vn -0.616736 0.613040 -0.493780
vn -0.327205 0.939731 0.099210
vn -0.634261 0.701205 -0.325615
vn 0.047788 0.767883 0.638805
vn -0.265824 0.962780 0.048923
vn -0.726647 0.385619 -0.568579
vn -0.042972 0.777436 0.627493
vn -0.050434 0.514555 0.855973
vn 0.209718 0.956186 0.204271
vn -0.136446 0.725686 0.674360
vn 0.103442 0.980436 0.167465
vn 0.563658 0.753438 -0.338558
vn 0.579844 0.737084 -0.347114
vn 0.791506 0.430860 -0.433448
vn -0.029620 0.927899 -0.371653
vn 0.626215 0.754640 -0.195889
vn 0.006518 0.956162 -0.292766
vn -0.640000 0.616929 -0.458037
vn -0.033986 0.653103 0.756506
vn -0.390109 0.392345 -0.832995
vn 0.715454 0.497855 -0.490170
# 94 normals

g material_0
usemtl material_0
s 1
f 32/1/1 29/2/2 15/3/3
f 33/4/4 29/2/2 32/1/1
f 28/5/5 32/1/1 23/6/6
f 33/4/4 32/1/1 28/5/5
f 8/7/7 28/5/5 20/8/8
f 33/4/4 28/5/5 8/7/7
f 29/2/2 8/7/7 19/9/9
f 33/4/4 8/7/7 29/2/2
f 29/2/2 22/10/10 7/11/11
f 29/2/2 7/11/11 16/12/12
f 32/1/1 6/13/13 31/14/14
f 15/3/3 6/13/13 32/1/1
f 32/1/1 31/14/14 13/15/15
f 32/1/1 13/15/15 23/6/6
f 28/5/5 12/16/16 26/17/17
f 23/6/6 12/16/16 28/5/5
f 28/5/5 26/17/17 9/18/18
f 28/5/5 9/18/18 20/8/8
f 8/7/7 10/19/19 24/20/20
f 20/8/8 10/19/19 8/7/7
f 8/7/7 24/20/20 3/21/21
f 8/7/7 3/21/21 19/9/9
f 29/2/2 4/22/22 22/10/10
f 19/9/9 4/22/22 29/2/2
f 21/23/23 38/24/24 5/25/25
f 30/26/26 38/24/24 44/27/27
f 5/25/25 38/24/24 30/26/26
f 30/26/26 44/27/27 14/28/28
f 14/28/28 44/27/27 27/29/29
f 11/30/30 27/29/29 17/31/31
f 27/29/29 44/27/27 17/31/31
f 11/30/30 17/31/31 25/32/32
f 2/33/33 25/32/32 38/24/24
f 25/32/32 17/31/31 38/24/24
f 2/33/33 38/24/24 21/23/23
f 79/34/34 78/35/35 85/36/36
f 79/34/34 85/36/36 80/35/37
f 63/34/38 65/36/39 62/35/40
f 63/34/38 62/35/40 87/36/41
f 63/34/38 87/36/41 64/35/42
f 75/34/43 77/36/44 74/35/45
f 75/34/43 74/35/45 89/36/46
f 75/34/43 89/36/46 76/35/47
f 79/34/34 81/36/48 78/35/35
f 55/34/49 57/36/50 54/35/51
f 55/34/49 54/35/51 84/36/52
f 55/34/49 84/36/52 56/35/53
f 59/34/54 61/36/55 58/35/56
f 59/34/54 58/35/56 90/36/57
f 59/34/54 90/36/57 60/35/58
f 51/34/59 53/36/60 50/35/61
f 51/34/59 50/35/61 83/36/62
f 51/34/59 83/36/62 52/35/63
f 67/34/64 69/36/65 66/35/66
f 67/34/64 66/35/66 88/36/67
f 67/34/64 88/36/67 68/35/68
f 71/34/69 73/36/70 70/35/71
f 71/34/69 70/35/71 86/36/72
f 71/34/69 86/36/72 72/35/73
f 37/37/74 91/38/75 93/39/76
f 43/40/77 91/38/75 42/41/78
f 91/38/75 37/37/74 42/41/78
f 93/39/76 41/42/79 37/37/74
f 95/43/80 43/40/77 40/44/81
f 43/40/77 95/43/80 91/38/75
f 95/43/80 93/39/76 91/38/75
f 82/45/82 34/46/83 46/47/84
f 47/48/85 82/45/82 46/47/84
f 34/46/83 82/45/82 95/43/80
f 95/43/80 40/44/81 34/46/83
f 94/49/86 47/48/85 36/50/87
f 47/48/85 94/49/86 82/45/82
f 94/49/86 95/43/80 82/45/82
f 92/51/88 49/52/89 48/53/90
f 35/54/91 92/51/88 48/53/90
f 93/39/76 35/54/91 41/42/79
f 35/54/91 93/39/76 92/51/88
f 94/49/86 36/50/87 49/52/89
f 93/39/76 94/49/86 92/51/88
f 39/55/92 18/56/93 93/39/76
f 93/39/76 95/43/80 39/55/92
f 18/56/93 45/57/94 94/49/86
f 94/49/86 93/39/76 18/56/93
f 94/49/86 39/55/92 95/43/80
f 39/55/92 94/49/86 45/57/94
f 49/52/89 92/51/88 94/49/86
# 86 triangles in group

# 86 triangles total

